# xmcd
#
# Track frame offsets: 
#        150
#        26327
#        47945
#        94932
#        115822
#        125057
#        146732
#        159110
#        180500
#        196947
#        222320
#        257782
#        276900
#        297710
#
# Disc length: 4238 seconds
#
# Revision: 0
# Processed by: cddbd v1.4PL0 Copyright (c) Steve Scherf et al.
# Submitted via: ExactAudioCopy v0.90a11
#
DISCID=d8108c0e
DTITLE=Robert B. Jones - Blues From The Lowlands
DYEAR=1900
DGENRE=
TTITLE0=Death Letter Blues
TTITLE1=Big Leg Woman Blues
TTITLE2=Goin' To Church
TTITLE3=Robert's Blues
TTITLE4=Dark Was The Night
TTITLE5=Drivin' Miss Daisy
TTITLE6=Sorrow's Kitchen
TTITLE7=Gone But Not Forgotten
TTITLE8=Sleep On
TTITLE9=Crossroads Blues
TTITLE10=Sundown Blues
TTITLE11=When I Was On A Chaingang
TTITLE12=Fast Mail Rambler
TTITLE13=Dust My Broom
EXTD=
EXTT0=
EXTT1=
EXTT2=
EXTT3=
EXTT4=
EXTT5=
EXTT6=
EXTT7=
EXTT8=
EXTT9=
EXTT10=
EXTT11=
EXTT12=
EXTT13=
PLAYORDER=
